<svg width="19" height="19" viewBox="0 0 19 19" fill="none" xmlns="http://www.w3.org/2000/svg">
<path d="M14.3162 0C14.5561 0.0480058 14.8002 0.0840101 15.0367 0.146589C17.1306 0.703799 18.4491 2.04882 18.8861 4.15936C19.2527 5.93128 18.7301 7.49833 17.463 8.79534C16.53 9.75032 15.5799 10.689 14.6323 11.6294C14.072 12.1858 13.2521 12.0717 12.9291 11.3954C12.7526 11.025 12.7946 10.6624 13.0396 10.3307C13.0945 10.2561 13.1613 10.1909 13.2264 10.1249C14.1474 9.20168 15.0727 8.28185 15.9911 7.35603C17.0261 6.31362 17.2265 4.77743 16.4949 3.56186C15.4497 1.82508 13.0988 1.55076 11.638 2.9995C10.6939 3.93562 9.75916 4.87944 8.8176 5.81813C8.43121 6.20303 7.95401 6.27504 7.51878 6.02215C6.9876 5.7144 6.81368 4.95574 7.23691 4.5194C8.34725 3.37583 9.4653 2.23655 10.633 1.15214C11.3578 0.4792 12.2797 0.150018 13.2675 0.0368616C13.3087 0.0317181 13.3481 0.0128587 13.3883 0C13.6976 0 14.0069 0 14.3162 0Z" fill="#72999B"/>
<path d="M0 13.3593C0.0531181 13.1013 0.096812 12.8407 0.161068 12.5852C0.392389 11.6645 0.8576 10.875 1.52415 10.2038C2.46571 9.25654 3.40898 8.31186 4.35654 7.3706C4.85345 6.87683 5.52942 6.89997 5.94494 7.41432C6.23195 7.77093 6.23624 8.30328 5.9518 8.66761C5.89525 8.74048 5.83014 8.80735 5.76417 8.8725C4.84745 9.79146 3.92988 10.7096 3.01145 11.6277C2.29864 12.3401 1.98764 13.1999 2.07932 14.2011C2.19326 15.4493 3.16053 16.562 4.39338 16.8432C5.53456 17.1029 6.53267 16.814 7.36457 15.9868C8.3027 15.0541 9.23484 14.1154 10.1721 13.181C10.5585 12.7953 11.0357 12.7232 11.4709 12.9753C12.0013 13.2822 12.176 14.0425 11.7528 14.4789C10.6425 15.6224 9.54498 16.7874 8.35325 17.8419C7.22492 18.8388 5.83699 19.1552 4.33855 18.9288C2.21897 18.61 0.480633 16.9349 0.0873878 14.8286C0.0582586 14.6726 0.029986 14.5166 0.00171349 14.3597C0.00171349 14.0254 0.00171349 13.6919 0.00171349 13.3576L0 13.3593Z" fill="#72999B"/>
<path d="M13.426 6.58708C13.4312 6.9274 13.2684 7.18544 13.0371 7.41604C11.2148 9.23683 9.39419 11.0602 7.57276 12.8818C7.45967 12.995 7.34658 13.1116 7.22149 13.211C6.8094 13.5393 6.22338 13.5016 5.85756 13.1304C5.49515 12.7627 5.46174 12.1883 5.77959 11.7786C5.81729 11.7297 5.85584 11.6808 5.89954 11.638C7.8075 9.72803 9.71461 7.81723 11.626 5.90985C12.0595 5.4778 12.643 5.44694 13.0748 5.82241C13.3061 6.02387 13.4209 6.2819 13.4269 6.58794L13.426 6.58708Z" fill="#72999B"/>
</svg>
