<svg width="19" height="19" viewBox="0 0 19 19" fill="none" xmlns="http://www.w3.org/2000/svg">
<path d="M15.8333 0H3.16667C2.32682 0 1.52137 0.33363 0.927501 0.927496C0.333636 1.52136 0 2.32681 0 3.16667V15.8333C0 16.6732 0.333636 17.4786 0.927501 18.0725C1.52137 18.6664 2.32682 19 3.16667 19H15.8333C16.6732 19 17.4786 18.6664 18.0725 18.0725C18.6664 17.4786 19 16.6732 19 15.8333V3.16667C19 2.32681 18.6664 1.52136 18.0725 0.927496C17.4786 0.33363 16.6732 0 15.8333 0ZM3.16667 2.11111H15.8333C16.1133 2.11111 16.3818 2.22232 16.5797 2.42028C16.7777 2.61823 16.8889 2.88672 16.8889 3.16667V11.9911L13.5111 9.10945C12.9878 8.67882 12.3311 8.44338 11.6533 8.44338C10.9756 8.44338 10.3189 8.67882 9.79555 9.10945L2.11111 15.5167V3.16667C2.11111 2.88672 2.22233 2.61823 2.42028 2.42028C2.61824 2.22232 2.88672 2.11111 3.16667 2.11111Z" fill="#72999B"/>
<path d="M5.27777 7.38888C6.15222 7.38888 6.86111 6.68 6.86111 5.80555C6.86111 4.9311 6.15222 4.22222 5.27777 4.22222C4.40332 4.22222 3.69445 4.9311 3.69445 5.80555C3.69445 6.68 4.40332 7.38888 5.27777 7.38888Z" fill="#72999B"/>
</svg>
