<svg width="19" height="19" viewBox="0 0 19 19" fill="none" xmlns="http://www.w3.org/2000/svg">
<path d="M0 10.1694C0 9.72433 0 9.27876 0 8.83368C0.0396391 8.54175 0.0698639 8.24784 0.120899 7.9579C0.497966 5.8138 1.45426 3.97204 3.07351 2.51092C5.35028 0.457028 8.03385 -0.343416 11.0563 0.133876C13.4664 0.514025 15.4459 1.70403 16.9521 3.62609C18.7191 5.88071 19.3354 8.44659 18.8281 11.2578C18.4451 13.3806 17.4154 15.1683 15.8016 16.6042C14.4063 17.8462 12.7777 18.607 10.9285 18.8895C10.6738 18.9282 10.4186 18.9634 10.164 19.0001H8.86528C8.56055 18.9599 8.25385 18.9297 7.95061 18.8771C6.09253 18.5555 4.45345 17.7744 3.06707 16.4922C1.50331 15.0459 0.528191 13.2696 0.148151 11.1711C0.0896834 10.839 0.0495488 10.5035 0 10.1694ZM9.43509 15.778C10.7531 15.7636 11.9408 15.4657 12.9922 14.7287C13.951 14.0571 14.5877 13.161 14.828 12.0013C14.8805 11.7475 14.8067 11.5478 14.5788 11.4709C14.4311 11.4209 14.2418 11.3971 14.0981 11.4447C12.9298 11.8303 11.7312 12.0369 10.5053 12.1068C9.02334 12.1916 7.55422 12.1108 6.10541 11.7752C5.66789 11.6736 5.24078 11.5264 4.80426 11.4199C4.39052 11.3188 4.09125 11.6196 4.17449 12.026C4.3816 13.0361 4.90682 13.8529 5.69861 14.4977C6.7981 15.3934 8.08488 15.7517 9.43509 15.7785V15.778ZM14.1843 7.31259C14.1868 6.63804 13.6477 6.08987 12.9803 6.08838C12.3144 6.0864 11.7619 6.63457 11.7589 7.30069C11.756 7.97079 12.2946 8.51449 12.9679 8.52094C13.6378 8.52738 14.1819 7.98714 14.1843 7.31309V7.31259ZM4.81268 7.29475C4.80574 7.97128 5.33146 8.50904 6.01077 8.52044C6.66828 8.53135 7.22719 7.9916 7.23611 7.33688C7.24553 6.65538 6.70495 6.09383 6.03406 6.08838C5.36515 6.08293 4.82011 6.62119 4.81268 7.29524V7.29475Z" fill="#72999B"/>
</svg>
