<svg width="14" height="15" viewBox="0 0 14 15" fill="none" xmlns="http://www.w3.org/2000/svg">
<path fill-rule="evenodd" clip-rule="evenodd" d="M13.4532 1.02199C13.4485 1.02676 13.4407 1.02132 13.4435 1.01519L13.8047 0.229018C13.8682 0.090755 13.7223 -0.0503986 13.5862 0.0176489L11.8099 0.905832L1.15264 5.89067C-0.362123 6.59919 -0.390147 8.74328 1.10558 9.49114L1.69851 9.78761C2.46849 10.1726 3.39844 10.0217 4.00716 9.41297L5.93972 7.48041C6.03905 7.38108 6.18575 7.34597 6.31929 7.38957C6.58385 7.47596 6.66406 7.81117 6.46727 8.00796L4.35138 10.1239C3.74266 10.7326 3.59175 11.6625 3.97674 12.4325L4.27321 13.0254C5.02107 14.5212 7.16516 14.4931 7.87368 12.9784L9.9284 8.58552C9.93245 8.57687 9.94231 8.5726 9.95138 8.57557C9.96051 8.57854 9.97041 8.57421 9.97442 8.56549L12.0076 4.14039L13.463 1.02882C13.4659 1.0227 13.458 1.01721 13.4532 1.02199Z" fill="#D2E3E0"/>
</svg>
