<svg width="143" height="27" viewBox="0 0 143 27" fill="none" xmlns="http://www.w3.org/2000/svg">
<path d="M22.208 17.4061C22.0127 17.4061 21.915 17.3182 21.915 17.1425V14.3007C21.915 14.1249 22.0127 14.037 22.208 14.037H31.2314C31.29 14.037 31.3486 14.0663 31.4072 14.1249C31.4658 14.1639 31.4951 14.2225 31.4951 14.3007V15.9999C31.4951 17.4061 31.2217 18.7635 30.6748 20.0721C30.1475 21.3807 29.4053 22.5331 28.4482 23.5292C27.4912 24.5253 26.3486 25.326 25.0205 25.9315C23.6924 26.537 22.2373 26.8397 20.6553 26.8397C19.0732 26.8397 17.5889 26.5468 16.2021 25.9608C14.8154 25.3553 13.6045 24.535 12.5693 23.4999C11.5342 22.4647 10.7139 21.2635 10.1084 19.8964C9.52246 18.5096 9.22949 17.0253 9.22949 15.4432C9.22949 13.8612 9.52246 12.3768 10.1084 10.9901C10.7139 9.60339 11.5342 8.39246 12.5693 7.3573C13.6045 6.32214 14.8154 5.5116 16.2021 4.92566C17.5889 4.32019 19.0732 4.01746 20.6553 4.01746C22.3936 4.01746 23.9561 4.35925 25.3428 5.04285C26.749 5.70691 27.9795 6.59558 29.0342 7.70886C29.0732 7.76746 29.0928 7.85535 29.0928 7.97253C29.0928 8.07019 29.0635 8.13855 29.0049 8.17761L26.6611 10.1698C26.6025 10.2284 26.5244 10.2479 26.4268 10.2284C26.3486 10.2089 26.2803 10.16 26.2217 10.0819C25.6553 9.33972 24.8838 8.71472 23.9072 8.20691C22.9307 7.6991 21.8467 7.44519 20.6553 7.44519C19.6201 7.44519 18.6436 7.65027 17.7256 8.06042C16.8271 8.47058 16.0361 9.03699 15.3525 9.75964C14.6885 10.4823 14.1611 11.3319 13.7705 12.3085C13.3799 13.2655 13.1846 14.3104 13.1846 15.4432C13.1846 16.576 13.3799 17.6307 13.7705 18.6073C14.1611 19.5839 14.6885 20.4335 15.3525 21.1561C16.0361 21.8788 16.8271 22.4452 17.7256 22.8553C18.6436 23.2655 19.6201 23.4706 20.6553 23.4706C21.6709 23.4706 22.5889 23.285 23.4092 22.9139C24.249 22.5233 24.9619 22.035 25.5479 21.4491C26.1533 20.8436 26.6123 20.1893 26.9248 19.4862C27.2568 18.7635 27.4229 18.0702 27.4229 17.4061H22.208ZM49.5127 19.1053C49.5127 20.16 49.3076 21.1561 48.8975 22.0936C48.5068 23.0116 47.96 23.8124 47.2568 24.496C46.5537 25.1796 45.7334 25.7264 44.7959 26.1366C43.8584 26.5272 42.8525 26.7225 41.7783 26.7225C40.7041 26.7225 39.6885 26.5272 38.7314 26.1366C37.7939 25.7264 36.9736 25.1796 36.2705 24.496C35.5674 23.8124 35.0107 23.0116 34.6006 22.0936C34.21 21.1561 34.0146 20.16 34.0146 19.1053C34.0146 18.0507 34.21 17.0643 34.6006 16.1464C35.0107 15.2284 35.5674 14.4276 36.2705 13.744C36.9736 13.0409 37.7939 12.494 38.7314 12.1034C39.6885 11.6932 40.7041 11.4882 41.7783 11.4882C42.8525 11.4882 43.8584 11.6932 44.7959 12.1034C45.7334 12.494 46.5537 13.0409 47.2568 13.744C47.96 14.4276 48.5068 15.2284 48.8975 16.1464C49.3076 17.0643 49.5127 18.0507 49.5127 19.1053ZM45.5869 19.1053C45.5869 18.5194 45.4893 17.9725 45.2939 17.4647C45.0986 16.9569 44.8252 16.5175 44.4736 16.1464C44.1221 15.7557 43.7119 15.453 43.2432 15.2382C42.7939 15.0038 42.3057 14.8866 41.7783 14.8866C41.2314 14.8866 40.7236 15.0038 40.2549 15.2382C39.8057 15.453 39.4053 15.7557 39.0537 16.1464C38.7217 16.5175 38.458 16.9569 38.2627 17.4647C38.0674 17.9725 37.9697 18.5194 37.9697 19.1053C37.9697 19.6913 38.0674 20.2382 38.2627 20.746C38.458 21.2538 38.7217 21.703 39.0537 22.0936C39.4053 22.4843 39.8057 22.7968 40.2549 23.0311C40.7236 23.246 41.2314 23.3534 41.7783 23.3534C42.3057 23.3534 42.7939 23.246 43.2432 23.0311C43.7119 22.7968 44.1221 22.4843 44.4736 22.0936C44.8252 21.703 45.0986 21.2538 45.2939 20.746C45.4893 20.2382 45.5869 19.6913 45.5869 19.1053ZM73.5947 22.0643C73.5947 22.8651 73.4287 23.5585 73.0967 24.1444C72.7646 24.7303 72.3252 25.2186 71.7783 25.6093C71.251 25.9803 70.626 26.2635 69.9033 26.4589C69.2002 26.6346 68.4678 26.7225 67.7061 26.7225C67.042 26.7225 66.3779 26.6542 65.7139 26.5175C65.0693 26.3807 64.4541 26.1854 63.8682 25.9315C63.3018 25.6581 62.7939 25.326 62.3447 24.9354C61.915 24.5448 61.583 24.0956 61.3486 23.5878C61.3096 23.5292 61.2998 23.4608 61.3193 23.3827C61.3389 23.3046 61.3877 23.246 61.4658 23.2069L64.3369 21.6249C64.5322 21.5858 64.6494 21.6444 64.6885 21.8007C64.9619 22.4257 65.3721 22.8846 65.9189 23.1776C66.4854 23.4706 67.042 23.6171 67.5889 23.6171C68.1553 23.6171 68.6436 23.4803 69.0537 23.2069C69.4639 22.9335 69.6689 22.5526 69.6689 22.0643C69.6689 21.6542 69.4736 21.3417 69.083 21.1268C68.7119 20.8925 68.2334 20.6874 67.6475 20.5116C67.0811 20.3358 66.4561 20.1503 65.7725 19.955C65.1084 19.7596 64.4834 19.496 63.8975 19.1639C63.3311 18.8124 62.8525 18.3534 62.4619 17.787C62.0908 17.2206 61.9053 16.4784 61.9053 15.5604C61.9053 14.8378 62.0615 14.2128 62.374 13.6854C62.6865 13.1581 63.0967 12.7186 63.6045 12.3671C64.1318 12.0155 64.7178 11.7616 65.3623 11.6053C66.0264 11.4296 66.71 11.3417 67.4131 11.3417C68.0186 11.3417 68.624 11.41 69.2295 11.5468C69.835 11.6639 70.3916 11.8495 70.8994 12.1034C71.4268 12.3573 71.8857 12.6698 72.2764 13.0409C72.6865 13.412 72.999 13.8417 73.2139 14.33C73.2529 14.3885 73.2529 14.4569 73.2139 14.535C73.1943 14.6132 73.1455 14.6718 73.0674 14.7108L70.3135 16.205C70.1572 16.244 70.0498 16.1854 69.9912 16.0292C69.7373 15.4823 69.3662 15.0819 68.8779 14.828C68.4092 14.5741 67.9502 14.4471 67.501 14.4471C67.0518 14.4471 66.6611 14.5643 66.3291 14.7987C66.0166 15.0135 65.8604 15.3163 65.8604 15.7069C65.8604 16.1171 66.0459 16.4393 66.417 16.6737C66.8076 16.9081 67.2861 17.1229 67.8525 17.3182C68.4385 17.494 69.0635 17.6796 69.7275 17.8749C70.3916 18.0702 71.0068 18.3339 71.5732 18.6659C72.1592 18.9979 72.6377 19.4374 73.0088 19.9843C73.3994 20.5116 73.5947 21.205 73.5947 22.0643ZM85.8994 14.8866C85.8994 14.9452 85.8701 15.0038 85.8115 15.0624C85.7529 15.121 85.6748 15.1503 85.5771 15.1503H81.915V21.6249C81.915 22.1522 82.0518 22.5721 82.3252 22.8846C82.5986 23.1971 82.9502 23.3534 83.3799 23.3534C83.6533 23.3534 83.9561 23.2753 84.2881 23.119C84.6396 22.9432 84.9912 22.6893 85.3428 22.3573C85.4209 22.2792 85.5088 22.2499 85.6064 22.2694C85.7041 22.2889 85.7725 22.3378 85.8115 22.4159L87.2471 24.5839C87.3252 24.7596 87.2959 24.9159 87.1592 25.0526C86.5928 25.5995 85.9189 26.0194 85.1377 26.3124C84.3564 26.5858 83.5264 26.7225 82.6475 26.7225C82.042 26.7225 81.4561 26.6444 80.8896 26.4882C80.3428 26.3124 79.8545 26.0487 79.4248 25.6971C78.9951 25.326 78.6436 24.8671 78.3701 24.3202C78.1162 23.7538 77.9893 23.0897 77.9893 22.328V15.1503H75.1768C75.0986 15.1503 75.0303 15.121 74.9717 15.0624C74.9131 15.0038 74.8838 14.9452 74.8838 14.8866V12.0741C74.8838 11.9764 74.9131 11.8983 74.9717 11.8397C75.0303 11.7811 75.0889 11.7518 75.1475 11.7518H77.9893V7.26941C77.9893 7.0741 78.0869 6.97644 78.2822 6.97644H81.6514C81.71 6.97644 81.7686 7.00574 81.8271 7.06433C81.8857 7.12292 81.915 7.19128 81.915 7.26941V11.7518H85.5771C85.792 11.7518 85.8994 11.8593 85.8994 12.0741V14.8866ZM103.067 19.1053C103.067 20.16 102.862 21.1561 102.452 22.0936C102.062 23.0116 101.515 23.8124 100.812 24.496C100.108 25.1796 99.2881 25.7264 98.3506 26.1366C97.4131 26.5272 96.4072 26.7225 95.333 26.7225C94.2588 26.7225 93.2432 26.5272 92.2861 26.1366C91.3486 25.7264 90.5283 25.1796 89.8252 24.496C89.1221 23.8124 88.5654 23.0116 88.1553 22.0936C87.7646 21.1561 87.5693 20.16 87.5693 19.1053C87.5693 18.0507 87.7646 17.0643 88.1553 16.1464C88.5654 15.2284 89.1221 14.4276 89.8252 13.744C90.5283 13.0409 91.3486 12.494 92.2861 12.1034C93.2432 11.6932 94.2588 11.4882 95.333 11.4882C96.4072 11.4882 97.4131 11.6932 98.3506 12.1034C99.2881 12.494 100.108 13.0409 100.812 13.744C101.515 14.4276 102.062 15.2284 102.452 16.1464C102.862 17.0643 103.067 18.0507 103.067 19.1053ZM99.1416 19.1053C99.1416 18.5194 99.0439 17.9725 98.8486 17.4647C98.6533 16.9569 98.3799 16.5175 98.0283 16.1464C97.6768 15.7557 97.2666 15.453 96.7979 15.2382C96.3486 15.0038 95.8604 14.8866 95.333 14.8866C94.7861 14.8866 94.2783 15.0038 93.8096 15.2382C93.3604 15.453 92.96 15.7557 92.6084 16.1464C92.2764 16.5175 92.0127 16.9569 91.8174 17.4647C91.6221 17.9725 91.5244 18.5194 91.5244 19.1053C91.5244 19.6913 91.6221 20.2382 91.8174 20.746C92.0127 21.2538 92.2764 21.703 92.6084 22.0936C92.96 22.4843 93.3604 22.7968 93.8096 23.0311C94.2783 23.246 94.7861 23.3534 95.333 23.3534C95.8604 23.3534 96.3486 23.246 96.7979 23.0311C97.2666 22.7968 97.6768 22.4843 98.0283 22.0936C98.3799 21.703 98.6533 21.2538 98.8486 20.746C99.0439 20.2382 99.1416 19.6913 99.1416 19.1053ZM109.571 19.1053C109.571 19.6913 109.659 20.2479 109.835 20.7753C110.03 21.2831 110.294 21.7323 110.626 22.1229C110.958 22.494 111.349 22.7968 111.798 23.0311C112.247 23.246 112.726 23.3534 113.233 23.3534C113.858 23.3534 114.415 23.2167 114.903 22.9432C115.411 22.6503 115.851 22.162 116.222 21.4784C116.319 21.2831 116.466 21.2343 116.661 21.3319L119.415 22.8846C119.591 22.9628 119.63 23.119 119.532 23.3534C118.829 24.4276 117.95 25.2577 116.896 25.8436C115.86 26.4296 114.688 26.7225 113.38 26.7225C112.306 26.7225 111.29 26.5272 110.333 26.1366C109.396 25.7264 108.575 25.1796 107.872 24.496C107.169 23.8124 106.612 23.0116 106.202 22.0936C105.812 21.1561 105.616 20.16 105.616 19.1053C105.616 18.0507 105.812 17.0643 106.202 16.1464C106.612 15.2284 107.169 14.4276 107.872 13.744C108.575 13.0409 109.396 12.494 110.333 12.1034C111.29 11.6932 112.306 11.4882 113.38 11.4882C114.688 11.4882 115.86 11.7811 116.896 12.3671C117.95 12.9335 118.829 13.7733 119.532 14.8866C119.571 14.9647 119.581 15.0526 119.562 15.1503C119.542 15.2284 119.493 15.287 119.415 15.326L116.661 16.8788C116.603 16.9178 116.524 16.9276 116.427 16.9081C116.329 16.869 116.261 16.8104 116.222 16.7323C115.851 16.0487 115.411 15.5702 114.903 15.2968C114.415 15.0233 113.858 14.8866 113.233 14.8866C112.726 14.8866 112.247 15.0038 111.798 15.2382C111.349 15.453 110.958 15.7557 110.626 16.1464C110.294 16.5175 110.03 16.9569 109.835 17.4647C109.659 17.9725 109.571 18.5194 109.571 19.1053ZM126.153 26.1659C126.153 26.244 126.124 26.3124 126.065 26.371C126.007 26.41 125.948 26.4296 125.89 26.4296H122.491C122.315 26.4296 122.228 26.3417 122.228 26.1659V4.72058C122.228 4.66199 122.247 4.60339 122.286 4.5448C122.345 4.46667 122.413 4.42761 122.491 4.42761H125.89C125.948 4.42761 126.007 4.46667 126.065 4.5448C126.124 4.60339 126.153 4.66199 126.153 4.72058V16.7616L132.071 11.4882C132.188 11.371 132.325 11.3807 132.481 11.5175L134.591 13.8612C134.708 13.9784 134.698 14.0956 134.562 14.2128L129.317 18.871L134.854 24.1151C134.952 24.2518 134.952 24.369 134.854 24.4667L132.657 26.7518C132.599 26.8104 132.521 26.8397 132.423 26.8397C132.345 26.8397 132.276 26.8104 132.218 26.7518L126.153 20.9803V26.1659Z" fill="url(#paint0_linear_241_1518)"/>
<defs>
<linearGradient id="paint0_linear_241_1518" x1="-6.1221e-07" y1="-13.4256" x2="133.862" y2="64.2844" gradientUnits="userSpaceOnUse">
<stop stop-color="#0C9D89"/>
<stop offset="1" stop-color="#00B1D0"/>
</linearGradient>
</defs>
</svg>
