<svg width="760" height="225" viewBox="0 0 760 225" fill="none" xmlns="http://www.w3.org/2000/svg">
<mask id="mask0_241_1000" style="mask-type:luminance" maskUnits="userSpaceOnUse" x="0" y="0" width="760" height="209">
<path d="M0 0H760V208.762H0V0Z" fill="white"/>
</mask>
<g mask="url(#mask0_241_1000)">
<path d="M15.67 83.7467C15.67 83.7467 25.3838 1.20898 40.7422 1.20898C50.4559 1.20898 55.3097 26.8589 65.8144 52.7951C80.3819 88.7622 71.6542 125.016 90.8865 125.016C96.7264 125.016 108.912 115.997 115.959 105.413C133.984 78.3396 126.853 49.6999 141.031 49.6999C151.926 49.6999 157.758 92.0005 166.103 92.0005C182.83 92.0005 181.747 5.33587 191.175 5.33587C206.819 5.33587 193.576 79.3421 216.247 149.777C218.649 157.237 232.401 161.126 241.32 161.126C257.473 161.126 251.65 147.769 266.392 135.333C276.722 126.618 277.133 118.825 291.464 118.825C302.205 118.825 301.879 129.142 316.536 129.142C326.952 129.142 331.193 129.142 341.608 128.111C356.265 126.659 353.523 117.794 366.68 117.794C378.595 117.794 388.789 126.047 391.753 126.047C413.861 126.047 404.223 28.0337 416.825 28.0337C429.295 28.0337 420.087 78.3477 441.897 125.016C445.16 131.997 460.566 135.333 466.969 135.333C485.638 135.333 481.398 94.0639 492.041 94.0639C506.471 94.0639 499.608 123.076 517.113 150.809C524.681 162.797 535.521 173.506 542.186 173.506C560.594 173.506 554.722 105.413 567.258 105.413C579.794 105.413 581.623 173.506 592.33 173.506C606.695 173.506 600.608 81.6833 617.402 81.6833C625.68 81.6833 623.258 126.047 642.474 126.047C648.33 126.047 662.541 116.762 667.546 116.762C687.613 116.762 682.342 171.443 692.619 171.443C707.414 171.443 702.441 92.0005 717.691 92.0005C727.513 92.0005 742.763 142.555 742.763 142.555" stroke="url(#paint0_linear_241_1000)" stroke-width="3" stroke-linejoin="bevel"/>
</g>
<path d="M13.1135 224.372C12.525 224.372 12.0237 224.212 11.6096 223.892C11.1956 223.569 10.8792 223.101 10.6604 222.489C10.4417 221.875 10.3323 221.133 10.3323 220.263C10.3323 219.398 10.4417 218.66 10.6604 218.048C10.8818 217.433 11.1995 216.965 11.6135 216.642C12.0302 216.316 12.5302 216.153 13.1135 216.153C13.6969 216.153 14.1956 216.316 14.6096 216.642C15.0263 216.965 15.344 217.433 15.5628 218.048C15.7841 218.66 15.8948 219.398 15.8948 220.263C15.8948 221.133 15.7854 221.875 15.5667 222.489C15.3479 223.101 15.0315 223.569 14.6174 223.892C14.2034 224.212 13.7021 224.372 13.1135 224.372ZM13.1135 223.513C13.6969 223.513 14.15 223.232 14.4729 222.669C14.7958 222.107 14.9573 221.304 14.9573 220.263C14.9573 219.57 14.8831 218.98 14.7346 218.493C14.5888 218.006 14.3779 217.635 14.1018 217.38C13.8284 217.125 13.499 216.997 13.1135 216.997C12.5354 216.997 12.0836 217.282 11.7581 217.853C11.4326 218.42 11.2698 219.224 11.2698 220.263C11.2698 220.956 11.3427 221.544 11.4885 222.028C11.6344 222.513 11.844 222.881 12.1174 223.134C12.3935 223.387 12.7255 223.513 13.1135 223.513ZM20.1917 216.263V224.263H19.2229V217.278H19.176L17.2229 218.575V217.591L19.2229 216.263H20.1917Z" fill="#828898"/>
<path d="M62.3124 224.372C61.7239 224.372 61.2226 224.212 60.8085 223.892C60.3944 223.569 60.078 223.101 59.8593 222.489C59.6405 221.875 59.5312 221.133 59.5312 220.263C59.5312 219.398 59.6405 218.66 59.8593 218.048C60.0806 217.433 60.3984 216.965 60.8124 216.642C61.2291 216.316 61.7291 216.153 62.3124 216.153C62.8957 216.153 63.3944 216.316 63.8085 216.642C64.2252 216.965 64.5429 217.433 64.7616 218.048C64.983 218.66 65.0937 219.398 65.0937 220.263C65.0937 221.133 64.9843 221.875 64.7655 222.489C64.5468 223.101 64.2304 223.569 63.8163 223.892C63.4023 224.212 62.901 224.372 62.3124 224.372ZM62.3124 223.513C62.8957 223.513 63.3489 223.232 63.6718 222.669C63.9947 222.107 64.1562 221.304 64.1562 220.263C64.1562 219.57 64.0819 218.98 63.9335 218.493C63.7877 218.006 63.5767 217.635 63.3007 217.38C63.0273 217.125 62.6978 216.997 62.3124 216.997C61.7343 216.997 61.2825 217.282 60.9569 217.853C60.6314 218.42 60.4687 219.224 60.4687 220.263C60.4687 220.956 60.5416 221.544 60.6874 222.028C60.8332 222.513 61.0429 222.881 61.3163 223.134C61.5924 223.387 61.9244 223.513 62.3124 223.513ZM69.2812 224.372C68.7655 224.372 68.3059 224.284 67.9023 224.107C67.5012 223.929 67.1822 223.683 66.9452 223.368C66.7109 223.051 66.5832 222.682 66.5624 222.263H67.5468C67.5676 222.521 67.6562 222.743 67.8124 222.931C67.9687 223.116 68.1731 223.259 68.4257 223.36C68.6783 223.462 68.9582 223.513 69.2655 223.513C69.6093 223.513 69.914 223.453 70.1796 223.333C70.4452 223.213 70.6536 223.047 70.8046 222.833C70.9556 222.62 71.0312 222.372 71.0312 222.091C71.0312 221.797 70.9582 221.538 70.8124 221.314C70.6666 221.087 70.453 220.91 70.1718 220.782C69.8905 220.655 69.5468 220.591 69.1405 220.591H68.4999V219.732H69.1405C69.4582 219.732 69.7369 219.674 69.9765 219.56C70.2187 219.445 70.4075 219.284 70.5429 219.075C70.6809 218.867 70.7499 218.622 70.7499 218.341C70.7499 218.07 70.69 217.834 70.5702 217.634C70.4504 217.433 70.2812 217.277 70.0624 217.165C69.8463 217.053 69.5911 216.997 69.2968 216.997C69.0207 216.997 68.7603 217.048 68.5155 217.15C68.2734 217.248 68.0754 217.393 67.9218 217.583C67.7681 217.771 67.6848 217.997 67.6718 218.263H66.7343C66.7499 217.844 66.8762 217.476 67.1132 217.161C67.3502 216.844 67.6601 216.596 68.0429 216.419C68.4283 216.242 68.8515 216.153 69.3124 216.153C69.8072 216.153 70.2317 216.254 70.5859 216.454C70.94 216.652 71.2122 216.914 71.4023 217.239C71.5924 217.565 71.6874 217.916 71.6874 218.294C71.6874 218.745 71.5689 219.129 71.3319 219.446C71.0976 219.764 70.7786 219.984 70.3749 220.107V220.169C70.8801 220.252 71.2747 220.467 71.5585 220.814C71.8424 221.157 71.9843 221.583 71.9843 222.091C71.9843 222.526 71.8658 222.916 71.6288 223.263C71.3944 223.607 71.0741 223.877 70.6679 224.075C70.2616 224.273 69.7994 224.372 69.2812 224.372Z" fill="#828898"/>
<path d="M112.613 224.372C112.024 224.372 111.523 224.212 111.109 223.892C110.695 223.569 110.378 223.101 110.159 222.489C109.941 221.875 109.831 221.133 109.831 220.263C109.831 219.398 109.941 218.66 110.159 218.048C110.381 217.433 110.699 216.965 111.113 216.642C111.529 216.316 112.029 216.153 112.613 216.153C113.196 216.153 113.695 216.316 114.109 216.642C114.525 216.965 114.843 217.433 115.062 218.048C115.283 218.66 115.394 219.398 115.394 220.263C115.394 221.133 115.284 221.875 115.066 222.489C114.847 223.101 114.531 223.569 114.116 223.892C113.702 224.212 113.201 224.372 112.613 224.372ZM112.613 223.513C113.196 223.513 113.649 223.232 113.972 222.669C114.295 222.107 114.456 221.304 114.456 220.263C114.456 219.57 114.382 218.98 114.234 218.493C114.088 218.006 113.877 217.635 113.601 217.38C113.327 217.125 112.998 216.997 112.613 216.997C112.034 216.997 111.583 217.282 111.257 217.853C110.932 218.42 110.769 219.224 110.769 220.263C110.769 220.956 110.842 221.544 110.988 222.028C111.133 222.513 111.343 222.881 111.616 223.134C111.893 223.387 112.225 223.513 112.613 223.513ZM119.378 224.372C118.92 224.372 118.507 224.281 118.14 224.099C117.773 223.916 117.478 223.666 117.257 223.349C117.036 223.031 116.915 222.669 116.894 222.263H117.831C117.868 222.625 118.032 222.924 118.324 223.161C118.618 223.396 118.969 223.513 119.378 223.513C119.706 223.513 119.998 223.436 120.253 223.282C120.511 223.129 120.713 222.918 120.859 222.65C121.007 222.379 121.081 222.073 121.081 221.732C121.081 221.383 121.005 221.071 120.851 220.798C120.7 220.522 120.491 220.304 120.226 220.146C119.96 219.987 119.657 219.906 119.316 219.903C119.071 219.901 118.82 219.939 118.562 220.017C118.304 220.092 118.092 220.19 117.925 220.31L117.019 220.2L117.503 216.263H121.659V217.122H118.316L118.034 219.482H118.081C118.245 219.351 118.451 219.243 118.699 219.157C118.946 219.071 119.204 219.028 119.472 219.028C119.962 219.028 120.398 219.146 120.781 219.38C121.166 219.612 121.468 219.929 121.687 220.333C121.908 220.737 122.019 221.198 122.019 221.716C122.019 222.226 121.904 222.682 121.675 223.083C121.449 223.482 121.136 223.797 120.738 224.028C120.339 224.258 119.886 224.372 119.378 224.372Z" fill="#828898"/>
<path d="M163.069 224.372C162.48 224.372 161.979 224.212 161.565 223.892C161.151 223.569 160.834 223.101 160.615 222.489C160.397 221.875 160.287 221.133 160.287 220.263C160.287 219.398 160.397 218.66 160.615 218.048C160.837 217.433 161.154 216.965 161.569 216.642C161.985 216.316 162.485 216.153 163.069 216.153C163.652 216.153 164.151 216.316 164.565 216.642C164.981 216.965 165.299 217.433 165.518 218.048C165.739 218.66 165.85 219.398 165.85 220.263C165.85 221.133 165.74 221.875 165.522 222.489C165.303 223.101 164.986 223.569 164.572 223.892C164.158 224.212 163.657 224.372 163.069 224.372ZM163.069 223.513C163.652 223.513 164.105 223.232 164.428 222.669C164.751 222.107 164.912 221.304 164.912 220.263C164.912 219.57 164.838 218.98 164.69 218.493C164.544 218.006 164.333 217.635 164.057 217.38C163.783 217.125 163.454 216.997 163.069 216.997C162.49 216.997 162.039 217.282 161.713 217.853C161.388 218.42 161.225 219.224 161.225 220.263C161.225 220.956 161.298 221.544 161.444 222.028C161.589 222.513 161.799 222.881 162.072 223.134C162.348 223.387 162.68 223.513 163.069 223.513ZM167.369 224.263L170.947 217.185V217.122H166.822V216.263H171.947V217.169L168.385 224.263H167.369Z" fill="#828898"/>
<path d="M212.815 224.372C212.227 224.372 211.726 224.212 211.311 223.892C210.897 223.569 210.581 223.101 210.362 222.489C210.143 221.875 210.034 221.133 210.034 220.263C210.034 219.398 210.143 218.66 210.362 218.048C210.584 217.433 210.901 216.965 211.315 216.642C211.732 216.316 212.232 216.153 212.815 216.153C213.399 216.153 213.897 216.316 214.311 216.642C214.728 216.965 215.046 217.433 215.265 218.048C215.486 218.66 215.597 219.398 215.597 220.263C215.597 221.133 215.487 221.875 215.268 222.489C215.05 223.101 214.733 223.569 214.319 223.892C213.905 224.212 213.404 224.372 212.815 224.372ZM212.815 223.513C213.399 223.513 213.852 223.232 214.175 222.669C214.498 222.107 214.659 221.304 214.659 220.263C214.659 219.57 214.585 218.98 214.436 218.493C214.291 218.006 214.08 217.635 213.804 217.38C213.53 217.125 213.201 216.997 212.815 216.997C212.237 216.997 211.785 217.282 211.46 217.853C211.134 218.42 210.972 219.224 210.972 220.263C210.972 220.956 211.045 221.544 211.19 222.028C211.336 222.513 211.546 222.881 211.819 223.134C212.095 223.387 212.427 223.513 212.815 223.513ZM219.628 216.153C219.956 216.156 220.284 216.219 220.612 216.341C220.94 216.463 221.24 216.666 221.511 216.95C221.781 217.232 221.999 217.616 222.163 218.103C222.327 218.59 222.409 219.2 222.409 219.935C222.409 220.646 222.341 221.277 222.206 221.829C222.073 222.379 221.88 222.842 221.628 223.22C221.378 223.597 221.073 223.884 220.714 224.079C220.357 224.275 219.953 224.372 219.503 224.372C219.055 224.372 218.655 224.284 218.304 224.107C217.955 223.927 217.668 223.678 217.444 223.36C217.223 223.04 217.081 222.669 217.018 222.247H217.972C218.058 222.614 218.228 222.918 218.483 223.157C218.741 223.394 219.081 223.513 219.503 223.513C220.12 223.513 220.607 223.243 220.964 222.704C221.323 222.165 221.503 221.403 221.503 220.419H221.44C221.295 220.638 221.121 220.827 220.921 220.985C220.72 221.144 220.498 221.267 220.253 221.353C220.008 221.439 219.748 221.482 219.472 221.482C219.013 221.482 218.593 221.368 218.21 221.142C217.83 220.913 217.525 220.599 217.296 220.2C217.069 219.799 216.956 219.341 216.956 218.825C216.956 218.336 217.065 217.888 217.284 217.482C217.505 217.073 217.815 216.747 218.214 216.505C218.615 216.263 219.086 216.146 219.628 216.153ZM219.628 217.013C219.3 217.013 219.004 217.095 218.741 217.259C218.481 217.42 218.274 217.639 218.12 217.915C217.969 218.189 217.893 218.492 217.893 218.825C217.893 219.159 217.966 219.462 218.112 219.735C218.261 220.006 218.462 220.222 218.718 220.384C218.976 220.543 219.268 220.622 219.597 220.622C219.844 220.622 220.074 220.574 220.288 220.478C220.502 220.379 220.688 220.245 220.847 220.075C221.008 219.903 221.134 219.709 221.226 219.493C221.317 219.275 221.362 219.047 221.362 218.81C221.362 218.497 221.287 218.204 221.136 217.931C220.987 217.657 220.781 217.436 220.518 217.267C220.258 217.097 219.961 217.013 219.628 217.013Z" fill="#828898"/>
<path d="M264.919 216.263V224.263H263.95V217.278H263.903L261.95 218.575V217.591L263.95 216.263H264.919ZM270.032 216.263V224.263H269.064V217.278H269.017L267.064 218.575V217.591L269.064 216.263H270.032Z" fill="#828898"/>
<path d="M314.118 216.263V224.263H313.149V217.278H313.103L311.149 218.575V217.591L313.149 216.263H314.118ZM319.122 224.372C318.606 224.372 318.147 224.284 317.743 224.107C317.342 223.929 317.023 223.683 316.786 223.368C316.552 223.051 316.424 222.682 316.403 222.263H317.388C317.409 222.521 317.497 222.743 317.653 222.931C317.81 223.116 318.014 223.259 318.267 223.36C318.519 223.462 318.799 223.513 319.106 223.513C319.45 223.513 319.755 223.453 320.021 223.333C320.286 223.213 320.494 223.047 320.646 222.833C320.797 222.62 320.872 222.372 320.872 222.091C320.872 221.797 320.799 221.538 320.653 221.314C320.508 221.087 320.294 220.91 320.013 220.782C319.731 220.655 319.388 220.591 318.981 220.591H318.341V219.732H318.981C319.299 219.732 319.578 219.674 319.817 219.56C320.06 219.445 320.248 219.284 320.384 219.075C320.522 218.867 320.591 218.622 320.591 218.341C320.591 218.07 320.531 217.834 320.411 217.634C320.291 217.433 320.122 217.277 319.903 217.165C319.687 217.053 319.432 216.997 319.138 216.997C318.862 216.997 318.601 217.048 318.356 217.15C318.114 217.248 317.916 217.393 317.763 217.583C317.609 217.771 317.526 217.997 317.513 218.263H316.575C316.591 217.844 316.717 217.476 316.954 217.161C317.191 216.844 317.501 216.596 317.884 216.419C318.269 216.242 318.692 216.153 319.153 216.153C319.648 216.153 320.073 216.254 320.427 216.454C320.781 216.652 321.053 216.914 321.243 217.239C321.433 217.565 321.528 217.916 321.528 218.294C321.528 218.745 321.41 219.129 321.173 219.446C320.939 219.764 320.619 219.984 320.216 220.107V220.169C320.721 220.252 321.116 220.467 321.399 220.814C321.683 221.157 321.825 221.583 321.825 222.091C321.825 222.526 321.707 222.916 321.47 223.263C321.235 223.607 320.915 223.877 320.509 224.075C320.103 224.273 319.64 224.372 319.122 224.372Z" fill="#828898"/>
<path d="M364.418 216.263V224.263H363.45V217.278H363.403L361.45 218.575V217.591L363.45 216.263H364.418ZM369.219 224.372C368.761 224.372 368.348 224.281 367.981 224.099C367.614 223.916 367.319 223.666 367.098 223.349C366.877 223.031 366.756 222.669 366.735 222.263H367.672C367.709 222.625 367.873 222.924 368.164 223.161C368.459 223.396 368.81 223.513 369.219 223.513C369.547 223.513 369.839 223.436 370.094 223.282C370.352 223.129 370.554 222.918 370.7 222.65C370.848 222.379 370.922 222.073 370.922 221.732C370.922 221.383 370.845 221.071 370.692 220.798C370.541 220.522 370.332 220.304 370.067 220.146C369.801 219.987 369.498 219.906 369.157 219.903C368.912 219.901 368.661 219.939 368.403 220.017C368.145 220.092 367.933 220.19 367.766 220.31L366.86 220.2L367.344 216.263H371.5V217.122H368.157L367.875 219.482H367.922C368.086 219.351 368.292 219.243 368.539 219.157C368.787 219.071 369.045 219.028 369.313 219.028C369.802 219.028 370.239 219.146 370.621 219.38C371.007 219.612 371.309 219.929 371.528 220.333C371.749 220.737 371.86 221.198 371.86 221.716C371.86 222.226 371.745 222.682 371.516 223.083C371.289 223.482 370.977 223.797 370.579 224.028C370.18 224.258 369.727 224.372 369.219 224.372Z" fill="#828898"/>
<path d="M414.767 216.263V224.263H413.798V217.278H413.751L411.798 218.575V217.591L413.798 216.263H414.767ZM417.318 224.263L420.896 217.185V217.122H416.771V216.263H421.896V217.169L418.333 224.263H417.318Z" fill="#828898"/>
<path d="M464.621 216.263V224.263H463.652V217.278H463.605L461.652 218.575V217.591L463.652 216.263H464.621ZM469.469 216.153C469.797 216.156 470.125 216.219 470.453 216.341C470.781 216.463 471.081 216.666 471.351 216.95C471.622 217.232 471.84 217.616 472.004 218.103C472.168 218.59 472.25 219.2 472.25 219.935C472.25 220.646 472.182 221.277 472.047 221.829C471.914 222.379 471.721 222.842 471.469 223.22C471.219 223.597 470.914 223.884 470.555 224.079C470.198 224.275 469.794 224.372 469.344 224.372C468.896 224.372 468.496 224.284 468.144 224.107C467.795 223.927 467.509 223.678 467.285 223.36C467.064 223.04 466.922 222.669 466.859 222.247H467.812C467.898 222.614 468.069 222.918 468.324 223.157C468.582 223.394 468.922 223.513 469.344 223.513C469.961 223.513 470.448 223.243 470.805 222.704C471.164 222.165 471.344 221.403 471.344 220.419H471.281C471.135 220.638 470.962 220.827 470.762 220.985C470.561 221.144 470.338 221.267 470.094 221.353C469.849 221.439 469.588 221.482 469.312 221.482C468.854 221.482 468.433 221.368 468.051 221.142C467.67 220.913 467.366 220.599 467.137 220.2C466.91 219.799 466.797 219.341 466.797 218.825C466.797 218.336 466.906 217.888 467.125 217.482C467.346 217.073 467.656 216.747 468.055 216.505C468.456 216.263 468.927 216.146 469.469 216.153ZM469.469 217.013C469.141 217.013 468.845 217.095 468.582 217.259C468.322 217.42 468.114 217.639 467.961 217.915C467.81 218.189 467.734 218.492 467.734 218.825C467.734 219.159 467.807 219.462 467.953 219.735C468.101 220.006 468.303 220.222 468.558 220.384C468.816 220.543 469.109 220.622 469.437 220.622C469.685 220.622 469.915 220.574 470.129 220.478C470.342 220.379 470.529 220.245 470.687 220.075C470.849 219.903 470.975 219.709 471.066 219.493C471.157 219.275 471.203 219.047 471.203 218.81C471.203 218.497 471.127 218.204 470.976 217.931C470.828 217.657 470.622 217.436 470.359 217.267C470.099 217.097 469.802 217.013 469.469 217.013Z" fill="#828898"/>
<path d="M512.055 224.263V223.56L514.696 220.669C515.005 220.331 515.261 220.036 515.461 219.786C515.662 219.534 515.81 219.297 515.907 219.075C516.005 218.851 516.055 218.617 516.055 218.372C516.055 218.091 515.987 217.847 515.852 217.642C515.719 217.436 515.537 217.277 515.305 217.165C515.073 217.053 514.813 216.997 514.524 216.997C514.216 216.997 513.948 217.061 513.719 217.189C513.492 217.314 513.317 217.489 513.192 217.716C513.069 217.943 513.008 218.208 513.008 218.513H512.086C512.086 218.044 512.194 217.633 512.41 217.278C512.627 216.924 512.921 216.648 513.293 216.45C513.668 216.252 514.089 216.153 514.555 216.153C515.024 216.153 515.439 216.252 515.801 216.45C516.163 216.648 516.447 216.915 516.653 217.251C516.858 217.587 516.961 217.961 516.961 218.372C516.961 218.666 516.908 218.954 516.801 219.235C516.697 219.514 516.515 219.825 516.254 220.169C515.996 220.51 515.638 220.927 515.18 221.419L513.383 223.341V223.403H517.102V224.263H512.055ZM521.528 216.263V224.263H520.559V217.278H520.512L518.559 218.575V217.591L520.559 216.263H521.528Z" fill="#828898"/>
<path d="M561.254 224.263V223.56L563.895 220.669C564.204 220.331 564.46 220.036 564.66 219.786C564.861 219.534 565.009 219.297 565.106 219.075C565.204 218.851 565.254 218.617 565.254 218.372C565.254 218.091 565.186 217.847 565.051 217.642C564.918 217.436 564.736 217.277 564.504 217.165C564.272 217.053 564.012 216.997 563.723 216.997C563.415 216.997 563.147 217.061 562.918 217.189C562.691 217.314 562.516 217.489 562.391 217.716C562.268 217.943 562.207 218.208 562.207 218.513H561.285C561.285 218.044 561.393 217.633 561.609 217.278C561.826 216.924 562.12 216.648 562.492 216.45C562.867 216.252 563.288 216.153 563.754 216.153C564.223 216.153 564.638 216.252 565 216.45C565.362 216.648 565.646 216.915 565.852 217.251C566.057 217.587 566.16 217.961 566.16 218.372C566.16 218.666 566.107 218.954 566 219.235C565.896 219.514 565.714 219.825 565.453 220.169C565.195 220.51 564.837 220.927 564.379 221.419L562.582 223.341V223.403H566.301V224.263H561.254ZM570.617 224.372C570.102 224.372 569.642 224.284 569.238 224.107C568.837 223.929 568.518 223.683 568.281 223.368C568.047 223.051 567.919 222.682 567.898 222.263H568.883C568.904 222.521 568.992 222.743 569.148 222.931C569.305 223.116 569.509 223.259 569.762 223.36C570.014 223.462 570.294 223.513 570.602 223.513C570.945 223.513 571.25 223.453 571.516 223.333C571.781 223.213 571.99 223.047 572.141 222.833C572.292 222.62 572.367 222.372 572.367 222.091C572.367 221.797 572.294 221.538 572.148 221.314C572.003 221.087 571.789 220.91 571.508 220.782C571.227 220.655 570.883 220.591 570.477 220.591H569.836V219.732H570.477C570.794 219.732 571.073 219.674 571.313 219.56C571.555 219.445 571.744 219.284 571.879 219.075C572.017 218.867 572.086 218.622 572.086 218.341C572.086 218.07 572.026 217.834 571.906 217.634C571.786 217.433 571.617 217.277 571.398 217.165C571.182 217.053 570.927 216.997 570.633 216.997C570.357 216.997 570.096 217.048 569.852 217.15C569.609 217.248 569.411 217.393 569.258 217.583C569.104 217.771 569.021 217.997 569.008 218.263H568.07C568.086 217.844 568.212 217.476 568.449 217.161C568.686 216.844 568.996 216.596 569.379 216.419C569.764 216.242 570.188 216.153 570.648 216.153C571.143 216.153 571.568 216.254 571.922 216.454C572.276 216.652 572.548 216.914 572.738 217.239C572.928 217.565 573.023 217.916 573.023 218.294C573.023 218.745 572.905 219.129 572.668 219.446C572.434 219.764 572.115 219.984 571.711 220.107V220.169C572.216 220.252 572.611 220.467 572.895 220.814C573.178 221.157 573.32 221.583 573.32 222.091C573.32 222.526 573.202 222.916 572.965 223.263C572.731 223.607 572.41 223.877 572.004 224.075C571.598 224.273 571.135 224.372 570.617 224.372Z" fill="#828898"/>
<path d="M611.554 224.263V223.56L614.194 220.669C614.504 220.331 614.76 220.036 614.96 219.786C615.161 219.534 615.309 219.297 615.405 219.075C615.504 218.851 615.554 218.617 615.554 218.372C615.554 218.091 615.486 217.847 615.351 217.642C615.218 217.436 615.036 217.277 614.804 217.165C614.572 217.053 614.312 216.997 614.023 216.997C613.715 216.997 613.447 217.061 613.218 217.189C612.991 217.314 612.816 217.489 612.691 217.716C612.568 217.943 612.507 218.208 612.507 218.513H611.585C611.585 218.044 611.693 217.633 611.909 217.278C612.125 216.924 612.42 216.648 612.792 216.45C613.167 216.252 613.588 216.153 614.054 216.153C614.523 216.153 614.938 216.252 615.3 216.45C615.662 216.648 615.946 216.915 616.152 217.251C616.357 217.587 616.46 217.961 616.46 218.372C616.46 218.666 616.407 218.954 616.3 219.235C616.196 219.514 616.014 219.825 615.753 220.169C615.495 220.51 615.137 220.927 614.679 221.419L612.882 223.341V223.403H616.601V224.263H611.554ZM620.714 224.372C620.256 224.372 619.843 224.281 619.476 224.099C619.109 223.916 618.814 223.666 618.593 223.349C618.372 223.031 618.25 222.669 618.23 222.263H619.167C619.204 222.625 619.368 222.924 619.659 223.161C619.954 223.396 620.305 223.513 620.714 223.513C621.042 223.513 621.334 223.436 621.589 223.282C621.847 223.129 622.049 222.918 622.194 222.65C622.343 222.379 622.417 222.073 622.417 221.732C622.417 221.383 622.34 221.071 622.187 220.798C622.036 220.522 621.827 220.304 621.562 220.146C621.296 219.987 620.993 219.906 620.652 219.903C620.407 219.901 620.155 219.939 619.898 220.017C619.64 220.092 619.428 220.19 619.261 220.31L618.355 220.2L618.839 216.263H622.995V217.122H619.652L619.37 219.482H619.417C619.581 219.351 619.787 219.243 620.034 219.157C620.282 219.071 620.54 219.028 620.808 219.028C621.297 219.028 621.734 219.146 622.116 219.38C622.502 219.612 622.804 219.929 623.023 220.333C623.244 220.737 623.355 221.198 623.355 221.716C623.355 222.226 623.24 222.682 623.011 223.083C622.784 223.482 622.472 223.797 622.073 224.028C621.675 224.258 621.222 224.372 620.714 224.372Z" fill="#828898"/>
<path d="M661.902 224.263V223.56L664.543 220.669C664.853 220.331 665.108 220.036 665.309 219.786C665.509 219.534 665.658 219.297 665.754 219.075C665.853 218.851 665.902 218.617 665.902 218.372C665.902 218.091 665.835 217.847 665.699 217.642C665.566 217.436 665.384 217.277 665.152 217.165C664.921 217.053 664.66 216.997 664.371 216.997C664.064 216.997 663.796 217.061 663.566 217.189C663.34 217.314 663.164 217.489 663.039 217.716C662.917 217.943 662.855 218.208 662.855 218.513H661.934C661.934 218.044 662.042 217.633 662.258 217.278C662.474 216.924 662.768 216.648 663.141 216.45C663.516 216.252 663.936 216.153 664.402 216.153C664.871 216.153 665.286 216.252 665.648 216.45C666.01 216.648 666.294 216.915 666.5 217.251C666.706 217.587 666.809 217.961 666.809 218.372C666.809 218.666 666.755 218.954 666.648 219.235C666.544 219.514 666.362 219.825 666.102 220.169C665.844 220.51 665.486 220.927 665.027 221.419L663.23 223.341V223.403H666.949V224.263H661.902ZM668.813 224.263L672.391 217.185V217.122H668.266V216.263H673.391V217.169L669.828 224.263H668.813Z" fill="#828898"/>
<path d="M711.757 224.263V223.56L714.397 220.669C714.707 220.331 714.962 220.036 715.163 219.786C715.363 219.534 715.512 219.297 715.608 219.075C715.707 218.851 715.757 218.617 715.757 218.372C715.757 218.091 715.689 217.847 715.554 217.642C715.421 217.436 715.238 217.277 715.007 217.165C714.775 217.053 714.515 216.997 714.225 216.997C713.918 216.997 713.65 217.061 713.421 217.189C713.194 217.314 713.018 217.489 712.893 217.716C712.771 217.943 712.71 218.208 712.71 218.513H711.788C711.788 218.044 711.896 217.633 712.112 217.278C712.328 216.924 712.623 216.648 712.995 216.45C713.37 216.252 713.791 216.153 714.257 216.153C714.725 216.153 715.141 216.252 715.503 216.45C715.865 216.648 716.149 216.915 716.354 217.251C716.56 217.587 716.663 217.961 716.663 218.372C716.663 218.666 716.61 218.954 716.503 219.235C716.399 219.514 716.216 219.825 715.956 220.169C715.698 220.51 715.34 220.927 714.882 221.419L713.085 223.341V223.403H716.804V224.263H711.757ZM720.964 216.153C721.292 216.156 721.62 216.219 721.948 216.341C722.276 216.463 722.576 216.666 722.847 216.95C723.117 217.232 723.335 217.616 723.499 218.103C723.663 218.59 723.745 219.2 723.745 219.935C723.745 220.646 723.677 221.277 723.542 221.829C723.409 222.379 723.216 222.842 722.964 223.22C722.714 223.597 722.409 223.884 722.05 224.079C721.693 224.275 721.289 224.372 720.839 224.372C720.391 224.372 719.991 224.284 719.64 224.107C719.291 223.927 719.004 223.678 718.78 223.36C718.559 223.04 718.417 222.669 718.354 222.247H719.307C719.393 222.614 719.564 222.918 719.819 223.157C720.077 223.394 720.417 223.513 720.839 223.513C721.456 223.513 721.943 223.243 722.3 222.704C722.659 222.165 722.839 221.403 722.839 220.419H722.776C722.63 220.638 722.457 220.827 722.257 220.985C722.056 221.144 721.834 221.267 721.589 221.353C721.344 221.439 721.084 221.482 720.807 221.482C720.349 221.482 719.929 221.368 719.546 221.142C719.166 220.913 718.861 220.599 718.632 220.2C718.405 219.799 718.292 219.341 718.292 218.825C718.292 218.336 718.401 217.888 718.62 217.482C718.841 217.073 719.151 216.747 719.55 216.505C719.951 216.263 720.422 216.146 720.964 216.153ZM720.964 217.013C720.636 217.013 720.34 217.095 720.077 217.259C719.817 217.42 719.61 217.639 719.456 217.915C719.305 218.189 719.229 218.492 719.229 218.825C719.229 219.159 719.302 219.462 719.448 219.735C719.597 220.006 719.798 220.222 720.054 220.384C720.311 220.543 720.604 220.622 720.932 220.622C721.18 220.622 721.41 220.574 721.624 220.478C721.837 220.379 722.024 220.245 722.182 220.075C722.344 219.903 722.47 219.709 722.561 219.493C722.653 219.275 722.698 219.047 722.698 218.81C722.698 218.497 722.623 218.204 722.472 217.931C722.323 217.657 722.117 217.436 721.854 217.267C721.594 217.097 721.297 217.013 720.964 217.013Z" fill="#828898"/>
<path d="M3.13403 207.956H755.299" stroke="#828898" stroke-opacity="0.5" stroke-dasharray="4 2"/>
<path d="M3.13403 156.37H755.299" stroke="#828898" stroke-opacity="0.5" stroke-dasharray="4 2"/>
<path d="M3.13403 104.784H755.299" stroke="#828898" stroke-opacity="0.5" stroke-dasharray="4 2"/>
<path d="M3.13403 53.1981H755.299" stroke="#828898" stroke-opacity="0.5" stroke-dasharray="4 2"/>
<path d="M3.13403 1.61206H755.299" stroke="#828898" stroke-opacity="0.5" stroke-dasharray="4 2"/>
<defs>
<linearGradient id="paint0_linear_241_1000" x1="-3.91759" y1="-24.584" x2="787.423" y2="-24.584" gradientUnits="userSpaceOnUse">
<stop offset="0.0248" stop-color="#45BEC0"/>
<stop offset="0.0564" stop-color="#49BFC2"/>
<stop offset="0.0881" stop-color="#4CC0C3"/>
<stop offset="0.1198" stop-color="#4FC1C5"/>
<stop offset="0.1515" stop-color="#52C2C7"/>
<stop offset="0.1832" stop-color="#55C3C9"/>
<stop offset="0.2149" stop-color="#58C4CB"/>
<stop offset="0.2465" stop-color="#5BC5CC"/>
<stop offset="0.2782" stop-color="#5EC7CE"/>
<stop offset="0.3099" stop-color="#62C8D0"/>
<stop offset="0.3416" stop-color="#64C9D2"/>
<stop offset="0.3733" stop-color="#68CAD4"/>
<stop offset="0.405" stop-color="#6BCBD5"/>
<stop offset="0.4366" stop-color="#6ECCD7"/>
<stop offset="0.4683" stop-color="#71CDD9"/>
<stop offset="0.5" stop-color="#77CFD8"/>
<stop offset="0.5317" stop-color="#7FD1D5"/>
<stop offset="0.5634" stop-color="#88D3D2"/>
<stop offset="0.595" stop-color="#91D6CE"/>
<stop offset="0.6267" stop-color="#9AD8CA"/>
<stop offset="0.6584" stop-color="#A2DAC7"/>
<stop offset="0.6901" stop-color="#ABDCC4"/>
<stop offset="0.7218" stop-color="#B4DEC0"/>
<stop offset="0.7535" stop-color="#BCE0BD"/>
<stop offset="0.7851" stop-color="#C6E3B9"/>
<stop offset="0.8168" stop-color="#CFE5B6"/>
<stop offset="0.8485" stop-color="#D7E7B2"/>
<stop offset="0.8802" stop-color="#E0E9AF"/>
<stop offset="0.9119" stop-color="#E9ECAB"/>
<stop offset="0.9436" stop-color="#F1EEA8"/>
<stop offset="0.9752" stop-color="#F6EFA6"/>
</linearGradient>
</defs>
</svg>
